<?xml version="1.0" encoding="utf-8" standalone="no"?>
<!DOCTYPE svg PUBLIC "-//W3C//DTD SVG 1.1//EN"
  "http://www.w3.org/Graphics/SVG/1.1/DTD/svg11.dtd">
<svg xmlns:xlink="http://www.w3.org/1999/xlink" width="376.845pt" height="298.403875pt" viewBox="0 0 376.845 298.403875" xmlns="http://www.w3.org/2000/svg" version="1.1">
 <metadata>
  <rdf:RDF xmlns:dc="http://purl.org/dc/elements/1.1/" xmlns:cc="http://creativecommons.org/ns#" xmlns:rdf="http://www.w3.org/1999/02/22-rdf-syntax-ns#">
   <cc:Work>
    <dc:type rdf:resource="http://purl.org/dc/dcmitype/StillImage"/>
    <dc:date>2025-11-18T14:08:27.064343</dc:date>
    <dc:format>image/svg+xml</dc:format>
    <dc:creator>
     <cc:Agent>
      <dc:title>Matplotlib v3.10.8, https://matplotlib.org/</dc:title>
     </cc:Agent>
    </dc:creator>
   </cc:Work>
  </rdf:RDF>
 </metadata>
 <defs>
  <style type="text/css">*{stroke-linejoin: round; stroke-linecap: butt}</style>
 </defs>
 <g id="figure_1">
  <g id="patch_1">
   <path d="M 0 298.403875 
L 376.845 298.403875 
L 376.845 0 
L 0 0 
z
" style="fill: #ffffff"/>
  </g>
  <g id="axes_1">
   <g id="patch_2">
    <path d="M 19.725 266.112 
L 376.845 266.112 
L 376.845 0 
L 19.725 0 
z
" style="fill: #e5e5e5"/>
   </g>
   <g id="matplotlib.axis_1">
    <g id="xtick_1">
     <g id="line2d_1">
      <path d="M 35.957727 266.112 
L 35.957727 0 
" clip-path="url(#pb15899de5b)" style="fill: none; stroke: #ffffff; stroke-width: 0.8; stroke-linecap: square"/>
     </g>
     <g id="line2d_2">
      <defs>
       <path id="m26e2c9d996" d="M 0 0 
L 0 3.5 
" style="stroke: #555555; stroke-width: 0.8"/>
      </defs>
      <g>
       <use xlink:href="#m26e2c9d996" x="35.957727" y="266.112" style="fill: #555555; stroke: #555555; stroke-width: 0.8"/>
      </g>
     </g>
     <g id="text_1">
      <!-- 0 -->
      <g style="fill: #555555" transform="translate(32.776477 280.710437) scale(0.1 -0.1)">
       <defs>
        <path id="DejaVuSans-30" d="M 2034 4250 
Q 1547 4250 1301 3770 
Q 1056 3291 1056 2328 
Q 1056 1369 1301 889 
Q 1547 409 2034 409 
Q 2525 409 2770 889 
Q 3016 1369 3016 2328 
Q 3016 3291 2770 3770 
Q 2525 4250 2034 4250 
z
M 2034 4750 
Q 2819 4750 3233 4129 
Q 3647 3509 3647 2328 
Q 3647 1150 3233 529 
Q 2819 -91 2034 -91 
Q 1250 -91 836 529 
Q 422 1150 422 2328 
Q 422 3509 836 4129 
Q 1250 4750 2034 4750 
z
" transform="scale(0.015625)"/>
       </defs>
       <use xlink:href="#DejaVuSans-30"/>
      </g>
     </g>
    </g>
    <g id="xtick_2">
     <g id="line2d_3">
      <path d="M 100.888636 266.112 
L 100.888636 0 
" clip-path="url(#pb15899de5b)" style="fill: none; stroke: #ffffff; stroke-width: 0.8; stroke-linecap: square"/>
     </g>
     <g id="line2d_4">
      <g>
       <use xlink:href="#m26e2c9d996" x="100.888636" y="266.112" style="fill: #555555; stroke: #555555; stroke-width: 0.8"/>
      </g>
     </g>
     <g id="text_2">
      <!-- 20 -->
      <g style="fill: #555555" transform="translate(94.526136 280.710437) scale(0.1 -0.1)">
       <defs>
        <path id="DejaVuSans-32" d="M 1228 531 
L 3431 531 
L 3431 0 
L 469 0 
L 469 531 
Q 828 903 1448 1529 
Q 2069 2156 2228 2338 
Q 2531 2678 2651 2914 
Q 2772 3150 2772 3378 
Q 2772 3750 2511 3984 
Q 2250 4219 1831 4219 
Q 1534 4219 1204 4116 
Q 875 4013 500 3803 
L 500 4441 
Q 881 4594 1212 4672 
Q 1544 4750 1819 4750 
Q 2544 4750 2975 4387 
Q 3406 4025 3406 3419 
Q 3406 3131 3298 2873 
Q 3191 2616 2906 2266 
Q 2828 2175 2409 1742 
Q 1991 1309 1228 531 
z
" transform="scale(0.015625)"/>
       </defs>
       <use xlink:href="#DejaVuSans-32"/>
       <use xlink:href="#DejaVuSans-30" transform="translate(63.623047 0)"/>
      </g>
     </g>
    </g>
    <g id="xtick_3">
     <g id="line2d_5">
      <path d="M 165.819545 266.112 
L 165.819545 0 
" clip-path="url(#pb15899de5b)" style="fill: none; stroke: #ffffff; stroke-width: 0.8; stroke-linecap: square"/>
     </g>
     <g id="line2d_6">
      <g>
       <use xlink:href="#m26e2c9d996" x="165.819545" y="266.112" style="fill: #555555; stroke: #555555; stroke-width: 0.8"/>
      </g>
     </g>
     <g id="text_3">
      <!-- 40 -->
      <g style="fill: #555555" transform="translate(159.457045 280.710437) scale(0.1 -0.1)">
       <defs>
        <path id="DejaVuSans-34" d="M 2419 4116 
L 825 1625 
L 2419 1625 
L 2419 4116 
z
M 2253 4666 
L 3047 4666 
L 3047 1625 
L 3713 1625 
L 3713 1100 
L 3047 1100 
L 3047 0 
L 2419 0 
L 2419 1100 
L 313 1100 
L 313 1709 
L 2253 4666 
z
" transform="scale(0.015625)"/>
       </defs>
       <use xlink:href="#DejaVuSans-34"/>
       <use xlink:href="#DejaVuSans-30" transform="translate(63.623047 0)"/>
      </g>
     </g>
    </g>
    <g id="xtick_4">
     <g id="line2d_7">
      <path d="M 230.750455 266.112 
L 230.750455 0 
" clip-path="url(#pb15899de5b)" style="fill: none; stroke: #ffffff; stroke-width: 0.8; stroke-linecap: square"/>
     </g>
     <g id="line2d_8">
      <g>
       <use xlink:href="#m26e2c9d996" x="230.750455" y="266.112" style="fill: #555555; stroke: #555555; stroke-width: 0.8"/>
      </g>
     </g>
     <g id="text_4">
      <!-- 60 -->
      <g style="fill: #555555" transform="translate(224.387955 280.710437) scale(0.1 -0.1)">
       <defs>
        <path id="DejaVuSans-36" d="M 2113 2584 
Q 1688 2584 1439 2293 
Q 1191 2003 1191 1497 
Q 1191 994 1439 701 
Q 1688 409 2113 409 
Q 2538 409 2786 701 
Q 3034 994 3034 1497 
Q 3034 2003 2786 2293 
Q 2538 2584 2113 2584 
z
M 3366 4563 
L 3366 3988 
Q 3128 4100 2886 4159 
Q 2644 4219 2406 4219 
Q 1781 4219 1451 3797 
Q 1122 3375 1075 2522 
Q 1259 2794 1537 2939 
Q 1816 3084 2150 3084 
Q 2853 3084 3261 2657 
Q 3669 2231 3669 1497 
Q 3669 778 3244 343 
Q 2819 -91 2113 -91 
Q 1303 -91 875 529 
Q 447 1150 447 2328 
Q 447 3434 972 4092 
Q 1497 4750 2381 4750 
Q 2619 4750 2861 4703 
Q 3103 4656 3366 4563 
z
" transform="scale(0.015625)"/>
       </defs>
       <use xlink:href="#DejaVuSans-36"/>
       <use xlink:href="#DejaVuSans-30" transform="translate(63.623047 0)"/>
      </g>
     </g>
    </g>
    <g id="xtick_5">
     <g id="line2d_9">
      <path d="M 295.681364 266.112 
L 295.681364 0 
" clip-path="url(#pb15899de5b)" style="fill: none; stroke: #ffffff; stroke-width: 0.8; stroke-linecap: square"/>
     </g>
     <g id="line2d_10">
      <g>
       <use xlink:href="#m26e2c9d996" x="295.681364" y="266.112" style="fill: #555555; stroke: #555555; stroke-width: 0.8"/>
      </g>
     </g>
     <g id="text_5">
      <!-- 80 -->
      <g style="fill: #555555" transform="translate(289.318864 280.710437) scale(0.1 -0.1)">
       <defs>
        <path id="DejaVuSans-38" d="M 2034 2216 
Q 1584 2216 1326 1975 
Q 1069 1734 1069 1313 
Q 1069 891 1326 650 
Q 1584 409 2034 409 
Q 2484 409 2743 651 
Q 3003 894 3003 1313 
Q 3003 1734 2745 1975 
Q 2488 2216 2034 2216 
z
M 1403 2484 
Q 997 2584 770 2862 
Q 544 3141 544 3541 
Q 544 4100 942 4425 
Q 1341 4750 2034 4750 
Q 2731 4750 3128 4425 
Q 3525 4100 3525 3541 
Q 3525 3141 3298 2862 
Q 3072 2584 2669 2484 
Q 3125 2378 3379 2068 
Q 3634 1759 3634 1313 
Q 3634 634 3220 271 
Q 2806 -91 2034 -91 
Q 1263 -91 848 271 
Q 434 634 434 1313 
Q 434 1759 690 2068 
Q 947 2378 1403 2484 
z
M 1172 3481 
Q 1172 3119 1398 2916 
Q 1625 2713 2034 2713 
Q 2441 2713 2670 2916 
Q 2900 3119 2900 3481 
Q 2900 3844 2670 4047 
Q 2441 4250 2034 4250 
Q 1625 4250 1398 4047 
Q 1172 3844 1172 3481 
z
" transform="scale(0.015625)"/>
       </defs>
       <use xlink:href="#DejaVuSans-38"/>
       <use xlink:href="#DejaVuSans-30" transform="translate(63.623047 0)"/>
      </g>
     </g>
    </g>
    <g id="xtick_6">
     <g id="line2d_11">
      <path d="M 360.612273 266.112 
L 360.612273 0 
" clip-path="url(#pb15899de5b)" style="fill: none; stroke: #ffffff; stroke-width: 0.8; stroke-linecap: square"/>
     </g>
     <g id="line2d_12">
      <g>
       <use xlink:href="#m26e2c9d996" x="360.612273" y="266.112" style="fill: #555555; stroke: #555555; stroke-width: 0.8"/>
      </g>
     </g>
     <g id="text_6">
      <!-- 100 -->
      <g style="fill: #555555" transform="translate(351.068523 280.710437) scale(0.1 -0.1)">
       <defs>
        <path id="DejaVuSans-31" d="M 794 531 
L 1825 531 
L 1825 4091 
L 703 3866 
L 703 4441 
L 1819 4666 
L 2450 4666 
L 2450 531 
L 3481 531 
L 3481 0 
L 794 0 
L 794 531 
z
" transform="scale(0.015625)"/>
       </defs>
       <use xlink:href="#DejaVuSans-31"/>
       <use xlink:href="#DejaVuSans-30" transform="translate(63.623047 0)"/>
       <use xlink:href="#DejaVuSans-30" transform="translate(127.246094 0)"/>
      </g>
     </g>
    </g>
    <g id="text_7">
     <!-- time -->
     <g style="fill: #555555" transform="translate(184.729688 295.90825) scale(0.12 -0.12)">
      <defs>
       <path id="DejaVuSans-74" d="M 1172 4494 
L 1172 3500 
L 2356 3500 
L 2356 3053 
L 1172 3053 
L 1172 1153 
Q 1172 725 1289 603 
Q 1406 481 1766 481 
L 2356 481 
L 2356 0 
L 1766 0 
Q 1100 0 847 248 
Q 594 497 594 1153 
L 594 3053 
L 172 3053 
L 172 3500 
L 594 3500 
L 594 4494 
L 1172 4494 
z
" transform="scale(0.015625)"/>
       <path id="DejaVuSans-69" d="M 603 3500 
L 1178 3500 
L 1178 0 
L 603 0 
L 603 3500 
z
M 603 4863 
L 1178 4863 
L 1178 4134 
L 603 4134 
L 603 4863 
z
" transform="scale(0.015625)"/>
       <path id="DejaVuSans-6d" d="M 3328 2828 
Q 3544 3216 3844 3400 
Q 4144 3584 4550 3584 
Q 5097 3584 5394 3201 
Q 5691 2819 5691 2113 
L 5691 0 
L 5113 0 
L 5113 2094 
Q 5113 2597 4934 2840 
Q 4756 3084 4391 3084 
Q 3944 3084 3684 2787 
Q 3425 2491 3425 1978 
L 3425 0 
L 2847 0 
L 2847 2094 
Q 2847 2600 2669 2842 
Q 2491 3084 2119 3084 
Q 1678 3084 1418 2786 
Q 1159 2488 1159 1978 
L 1159 0 
L 581 0 
L 581 3500 
L 1159 3500 
L 1159 2956 
Q 1356 3278 1631 3431 
Q 1906 3584 2284 3584 
Q 2666 3584 2933 3390 
Q 3200 3197 3328 2828 
z
" transform="scale(0.015625)"/>
       <path id="DejaVuSans-65" d="M 3597 1894 
L 3597 1613 
L 953 1613 
Q 991 1019 1311 708 
Q 1631 397 2203 397 
Q 2534 397 2845 478 
Q 3156 559 3463 722 
L 3463 178 
Q 3153 47 2828 -22 
Q 2503 -91 2169 -91 
Q 1331 -91 842 396 
Q 353 884 353 1716 
Q 353 2575 817 3079 
Q 1281 3584 2069 3584 
Q 2775 3584 3186 3129 
Q 3597 2675 3597 1894 
z
M 3022 2063 
Q 3016 2534 2758 2815 
Q 2500 3097 2075 3097 
Q 1594 3097 1305 2825 
Q 1016 2553 972 2059 
L 3022 2063 
z
" transform="scale(0.015625)"/>
      </defs>
      <use xlink:href="#DejaVuSans-74"/>
      <use xlink:href="#DejaVuSans-69" transform="translate(39.208984 0)"/>
      <use xlink:href="#DejaVuSans-6d" transform="translate(66.992188 0)"/>
      <use xlink:href="#DejaVuSans-65" transform="translate(164.404297 0)"/>
     </g>
    </g>
   </g>
   <g id="matplotlib.axis_2">
    <g id="ytick_1">
     <g id="line2d_13">
      <path d="M 19.725 254.026977 
L 376.845 254.026977 
" clip-path="url(#pb15899de5b)" style="fill: none; stroke: #ffffff; stroke-width: 0.8; stroke-linecap: square"/>
     </g>
     <g id="line2d_14">
      <defs>
       <path id="m9db16db746" d="M 0 0 
L -3.5 0 
" style="stroke: #555555; stroke-width: 0.8"/>
      </defs>
      <g>
       <use xlink:href="#m9db16db746" x="19.725" y="254.026977" style="fill: #555555; stroke: #555555; stroke-width: 0.8"/>
      </g>
     </g>
     <g id="text_8">
      <!-- 0 -->
      <g style="fill: #555555" transform="translate(6.3625 257.826196) scale(0.1 -0.1)">
       <use xlink:href="#DejaVuSans-30"/>
      </g>
     </g>
    </g>
    <g id="ytick_2">
     <g id="line2d_15">
      <path d="M 19.725 205.640782 
L 376.845 205.640782 
" clip-path="url(#pb15899de5b)" style="fill: none; stroke: #ffffff; stroke-width: 0.8; stroke-linecap: square"/>
     </g>
     <g id="line2d_16">
      <g>
       <use xlink:href="#m9db16db746" x="19.725" y="205.640782" style="fill: #555555; stroke: #555555; stroke-width: 0.8"/>
      </g>
     </g>
     <g id="text_9">
      <!-- 2 -->
      <g style="fill: #555555" transform="translate(6.3625 209.44) scale(0.1 -0.1)">
       <use xlink:href="#DejaVuSans-32"/>
      </g>
     </g>
    </g>
    <g id="ytick_3">
     <g id="line2d_17">
      <path d="M 19.725 157.254586 
L 376.845 157.254586 
" clip-path="url(#pb15899de5b)" style="fill: none; stroke: #ffffff; stroke-width: 0.8; stroke-linecap: square"/>
     </g>
     <g id="line2d_18">
      <g>
       <use xlink:href="#m9db16db746" x="19.725" y="157.254586" style="fill: #555555; stroke: #555555; stroke-width: 0.8"/>
      </g>
     </g>
     <g id="text_10">
      <!-- 4 -->
      <g style="fill: #555555" transform="translate(6.3625 161.053805) scale(0.1 -0.1)">
       <use xlink:href="#DejaVuSans-34"/>
      </g>
     </g>
    </g>
    <g id="ytick_4">
     <g id="line2d_19">
      <path d="M 19.725 108.868391 
L 376.845 108.868391 
" clip-path="url(#pb15899de5b)" style="fill: none; stroke: #ffffff; stroke-width: 0.8; stroke-linecap: square"/>
     </g>
     <g id="line2d_20">
      <g>
       <use xlink:href="#m9db16db746" x="19.725" y="108.868391" style="fill: #555555; stroke: #555555; stroke-width: 0.8"/>
      </g>
     </g>
     <g id="text_11">
      <!-- 6 -->
      <g style="fill: #555555" transform="translate(6.3625 112.66761) scale(0.1 -0.1)">
       <use xlink:href="#DejaVuSans-36"/>
      </g>
     </g>
    </g>
    <g id="ytick_5">
     <g id="line2d_21">
      <path d="M 19.725 60.482195 
L 376.845 60.482195 
" clip-path="url(#pb15899de5b)" style="fill: none; stroke: #ffffff; stroke-width: 0.8; stroke-linecap: square"/>
     </g>
     <g id="line2d_22">
      <g>
       <use xlink:href="#m9db16db746" x="19.725" y="60.482195" style="fill: #555555; stroke: #555555; stroke-width: 0.8"/>
      </g>
     </g>
     <g id="text_12">
      <!-- 8 -->
      <g style="fill: #555555" transform="translate(6.3625 64.281414) scale(0.1 -0.1)">
       <use xlink:href="#DejaVuSans-38"/>
      </g>
     </g>
    </g>
    <g id="ytick_6">
     <g id="line2d_23">
      <path d="M 19.725 12.096 
L 376.845 12.096 
" clip-path="url(#pb15899de5b)" style="fill: none; stroke: #ffffff; stroke-width: 0.8; stroke-linecap: square"/>
     </g>
     <g id="line2d_24">
      <g>
       <use xlink:href="#m9db16db746" x="19.725" y="12.096" style="fill: #555555; stroke: #555555; stroke-width: 0.8"/>
      </g>
     </g>
     <g id="text_13">
      <!-- 10 -->
      <g style="fill: #555555" transform="translate(0 15.895219) scale(0.1 -0.1)">
       <use xlink:href="#DejaVuSans-31"/>
       <use xlink:href="#DejaVuSans-30" transform="translate(63.623047 0)"/>
      </g>
     </g>
    </g>
   </g>
   <g id="line2d_25">
    <path d="M 35.957727 229.833879 
L 36.282707 195.619254 
L 37.257645 18.006203 
L 37.582625 13.068366 
L 37.907604 24.958058 
L 39.532502 109.535552 
L 40.507441 146.821176 
L 41.482379 174.58114 
L 42.457318 195.171673 
L 43.432256 210.430496 
L 44.407195 221.734761 
L 45.382133 230.108309 
L 46.357072 236.311086 
L 47.332011 240.905001 
L 48.306949 244.307454 
L 49.281888 246.827428 
L 50.256826 248.694876 
L 51.231765 250.077063 
L 52.206704 251.100076 
L 53.181642 251.857522 
L 54.48156 252.571608 
L 56.106458 253.142689 
L 58.056335 253.539782 
L 60.656171 253.805834 
L 64.880905 253.963648 
L 74.305311 254.015634 
L 78.530045 253.939651 
L 79.180004 253.82947 
L 79.829963 253.468633 
L 80.154943 252.992576 
L 80.479922 251.96749 
L 80.804902 249.606804 
L 81.129881 243.828618 
L 81.454861 229.236428 
L 81.77984 194.36839 
L 82.754779 17.988316 
L 83.079758 13.61437 
L 83.404738 25.679755 
L 85.029636 110.068961 
L 86.004574 147.217438 
L 86.979513 174.874766 
L 87.954451 195.389122 
L 88.92939 210.591503 
L 89.904328 221.853937 
L 90.879267 230.196831 
L 91.854206 236.376265 
L 92.829144 240.953183 
L 93.804083 244.343036 
L 94.779021 246.855863 
L 95.75396 248.714905 
L 96.728898 250.090764 
L 97.703837 251.109759 
L 98.678776 251.864913 
L 99.978694 252.576487 
L 101.603591 253.145487 
L 103.553468 253.541335 
L 106.153305 253.806469 
L 110.378038 253.963777 
L 119.802445 254.015459 
L 124.027179 253.93336 
L 124.677138 253.812018 
L 125.002117 253.673457 
L 125.327097 253.408073 
L 125.652076 252.868593 
L 125.977056 251.694638 
L 126.302035 248.965544 
L 126.627015 242.2419 
L 126.951994 225.301031 
L 127.276974 185.85195 
L 127.926933 47.954635 
L 128.251912 15.864202 
L 128.576892 15.233056 
L 129.226851 46.320053 
L 130.20179 97.84423 
L 131.176728 138.046013 
L 132.151667 168.061476 
L 133.126605 190.33771 
L 134.101544 206.848442 
L 135.076482 219.080933 
L 136.051421 228.142286 
L 137.02636 234.854124 
L 138.001298 239.825473 
L 138.976237 243.507584 
L 139.951175 246.234751 
L 140.926114 248.253874 
L 141.901052 249.749998 
L 142.875991 250.858496 
L 143.85093 251.679961 
L 145.150848 252.453449 
L 146.450766 252.971489 
L 148.075663 253.385913 
L 150.35052 253.70684 
L 153.600315 253.906758 
L 159.449947 254.003204 
L 169.199333 253.950971 
L 170.174271 253.766878 
L 170.499251 253.589307 
L 170.82423 253.242155 
L 171.14921 252.518438 
L 171.474189 250.903658 
L 171.799169 247.065686 
L 172.124148 237.473965 
L 172.449128 213.653958 
L 172.774107 162.489793 
L 173.424066 31.158777 
L 173.749046 13.184947 
L 174.074025 19.654106 
L 175.048964 71.415875 
L 176.023903 117.923621 
L 176.998841 153.080552 
L 177.97378 179.225617 
L 178.948718 198.613653 
L 179.923657 212.980311 
L 180.898595 223.623546 
L 181.873534 231.50728 
L 182.848473 237.346714 
L 183.823411 241.673181 
L 184.79835 244.876695 
L 185.773288 247.24864 
L 186.748227 249.005494 
L 187.723165 250.306801 
L 188.698104 251.270614 
L 189.998022 252.178711 
L 191.29794 252.786737 
L 192.922838 253.273176 
L 194.872715 253.611476 
L 197.797531 253.855554 
L 202.672224 253.985269 
L 213.396548 253.997787 
L 215.021446 253.898158 
L 215.671405 253.70539 
L 215.996384 253.471917 
L 216.321364 253.003216 
L 216.646343 251.999338 
L 216.971323 249.697068 
L 217.296302 244.09134 
L 217.621282 229.983876 
L 217.946261 196.272105 
L 218.9212 19.688509 
L 219.246179 14.198312 
L 219.571159 25.753897 
L 221.521036 123.482698 
L 222.495975 157.224146 
L 223.470913 182.299767 
L 224.445852 200.891895 
L 225.42079 214.66812 
L 226.395729 224.873791 
L 227.370667 232.433302 
L 228.345606 238.032599 
L 229.320545 242.181044 
L 230.295483 245.252796 
L 231.270422 247.527247 
L 232.24536 249.211939 
L 233.220299 250.459681 
L 234.195238 251.383938 
L 235.495156 252.254512 
L 236.795074 252.837483 
L 238.419971 253.304001 
L 240.369848 253.628311 
L 243.294664 253.862382 
L 248.169357 253.986744 
L 258.893681 253.994107 
L 260.518579 253.866072 
L 261.168538 253.601149 
L 261.493518 253.267424 
L 261.818497 252.574812 
L 262.143477 251.038139 
L 262.468456 247.403832 
L 262.793436 238.352831 
L 263.118415 215.838186 
L 263.443395 166.786511 
L 264.093354 34.011421 
L 264.418333 13.865235 
L 264.743313 19.193673 
L 265.718251 70.505837 
L 266.69319 117.202978 
L 267.668129 152.540148 
L 268.643067 178.823819 
L 269.618006 198.315505 
L 270.592944 212.759204 
L 271.567883 223.459419 
L 272.542821 231.385423 
L 273.51776 237.256213 
L 274.492699 241.604579 
L 275.467637 244.82525 
L 276.442576 247.210667 
L 277.417514 248.977422 
L 278.392453 250.286597 
L 279.367391 251.255921 
L 280.66731 252.168519 
L 281.967228 252.780026 
L 283.592125 253.269247 
L 285.542002 253.609254 
L 288.466818 253.854652 
L 293.341511 253.984997 
L 304.065835 253.995993 
L 305.690733 253.885515 
L 306.340692 253.667149 
L 306.665672 253.39906 
L 306.990651 252.855473 
L 307.315631 251.6777 
L 307.64061 248.949853 
L 307.96559 242.255746 
L 308.290569 225.477996 
L 308.615549 186.549381 
L 309.265508 49.72934 
L 309.590487 17.221372 
L 309.915467 16.155881 
L 310.565426 46.836913 
L 311.540364 98.166427 
L 312.515303 138.275057 
L 313.490242 168.228717 
L 314.46518 190.460714 
L 315.440119 206.93914 
L 316.415057 219.147876 
L 317.389996 228.191721 
L 318.364934 234.890609 
L 319.339873 239.852414 
L 320.314812 243.52746 
L 321.28975 246.249424 
L 322.264689 248.264895 
L 323.239627 249.758049 
L 324.214566 250.864229 
L 325.189505 251.684011 
L 326.489423 252.45596 
L 327.789341 252.973036 
L 329.414238 253.386658 
L 331.689095 253.707079 
L 334.93889 253.906673 
L 340.788522 254.002997 
L 350.212928 253.961003 
L 351.187867 253.819444 
L 351.837826 253.443682 
L 352.162805 252.9501 
L 352.487785 251.891353 
L 352.812764 249.46438 
L 353.137744 243.558737 
L 353.462723 228.757986 
L 353.787703 193.750009 
L 354.762641 19.746002 
L 355.087621 15.463421 
L 355.4126 27.36625 
L 357.037498 111.035521 
L 358.012437 147.926583 
L 358.987375 175.397763 
L 359.962314 195.775521 
L 360.612273 206.337282 
L 360.612273 206.337282 
" clip-path="url(#pb15899de5b)" style="fill: none; stroke: #e24a33; stroke-width: 1.5; stroke-linecap: square"/>
   </g>
   <g id="line2d_26">
    <path d="M 35.957727 12.096 
L 36.282707 26.466424 
L 36.607686 79.327815 
L 37.257645 209.873241 
L 37.582625 235.98465 
L 37.907604 246.50383 
L 38.232584 250.686288 
L 38.557563 252.428688 
L 38.882543 253.203061 
L 39.207523 253.571423 
L 39.857482 253.859046 
L 41.1574 253.984936 
L 46.032093 254.015774 
L 56.431437 253.900142 
L 60.006212 253.653756 
L 62.281069 253.278951 
L 63.905966 252.795642 
L 65.205885 252.191221 
L 66.180823 251.549592 
L 67.155762 250.683262 
L 68.1307 249.513334 
L 69.105639 247.933405 
L 70.080577 245.800426 
L 71.055516 242.920386 
L 72.030455 239.030997 
L 73.005393 233.77781 
L 73.980332 226.68716 
L 74.95527 217.111592 
L 75.930209 204.190209 
L 76.905147 186.749984 
L 77.880086 163.222272 
L 78.855025 131.535147 
L 79.829963 89.205228 
L 81.129881 20.152745 
L 81.454861 12.475196 
L 81.77984 27.648952 
L 82.10482 81.428111 
L 82.754779 210.783202 
L 83.079758 236.338517 
L 83.404738 246.634564 
L 83.729717 250.734137 
L 84.054697 252.446709 
L 84.379676 253.211381 
L 84.704656 253.575127 
L 85.354615 253.859626 
L 86.654533 253.98486 
L 91.529226 254.01564 
L 101.928571 253.898238 
L 105.503346 253.648123 
L 107.778202 253.267673 
L 109.4031 252.777039 
L 110.703018 252.163487 
L 111.677957 251.512206 
L 112.652895 250.632702 
L 113.627834 249.444923 
L 114.602772 247.841366 
L 115.577711 245.676201 
L 116.552649 242.752184 
L 117.527588 238.802819 
L 118.502527 233.471972 
L 119.477465 226.272669 
L 120.452404 216.551835 
L 121.427342 203.435049 
L 122.402281 185.730856 
L 123.377219 161.848583 
L 124.352158 129.690489 
L 125.327097 86.779516 
L 126.627015 18.418235 
L 126.951994 13.282655 
L 127.276974 33.974685 
L 128.251912 216.478726 
L 128.576892 238.669784 
L 128.901871 247.543474 
L 129.226851 251.101166 
L 129.55183 252.604216 
L 129.87681 253.282392 
L 130.20179 253.609869 
L 130.851749 253.869172 
L 132.151667 253.985994 
L 137.351339 254.015064 
L 147.425704 253.893259 
L 151.000479 253.633405 
L 153.275336 253.238193 
L 154.900233 252.728619 
L 156.200152 252.09142 
L 157.17509 251.414973 
L 158.150029 250.501664 
L 159.124967 249.268558 
L 160.099906 247.603467 
L 161.074844 245.355343 
L 162.049783 242.320092 
L 163.024722 238.221627 
L 163.99966 232.688225 
L 164.974599 225.217869 
L 165.949537 215.131703 
L 166.924476 201.517846 
L 167.899414 183.143689 
L 168.874353 158.36117 
L 169.849292 125.007838 
L 170.82423 80.636179 
L 172.124148 14.918727 
L 172.449128 17.41395 
L 172.774107 52.649518 
L 173.424066 190.220416 
L 173.749046 227.369744 
L 174.074025 243.050819 
L 174.399005 249.280776 
L 174.723984 251.826642 
L 175.048964 252.925741 
L 175.373943 253.43486 
L 176.023903 253.818808 
L 176.998841 253.96177 
L 179.923657 254.013541 
L 191.62292 253.932399 
L 195.522674 253.722554 
L 197.797531 253.417771 
L 199.422428 253.024733 
L 200.722346 252.533219 
L 202.022265 251.799647 
L 202.997203 251.020934 
L 203.972142 249.969312 
L 204.94708 248.549302 
L 205.922019 246.632151 
L 206.896957 244.043318 
L 207.871896 240.545621 
L 208.846835 235.824722 
L 209.821773 229.450908 
L 210.796712 220.841772 
L 211.77165 209.226424 
L 212.746589 193.547166 
L 213.721527 172.390583 
L 214.696466 143.873989 
L 215.671405 105.611534 
L 216.646343 55.811405 
L 217.296302 21.438231 
L 217.621282 13.342402 
L 217.946261 27.26622 
L 218.271241 79.245161 
L 218.9212 209.136528 
L 219.246179 235.582879 
L 219.571159 246.309129 
L 219.896138 250.590397 
L 220.221118 252.381697 
L 220.546097 253.17769 
L 220.871077 253.55696 
L 221.521036 253.853197 
L 222.820954 253.983353 
L 227.695647 254.015279 
L 237.770012 253.90657 
L 241.344787 253.673477 
L 243.619644 253.318888 
L 245.244541 252.861659 
L 246.544459 252.289856 
L 247.844378 251.436455 
L 248.819316 250.530465 
L 249.794255 249.307252 
L 250.769193 247.655515 
L 251.744132 245.424887 
L 252.71907 242.41195 
L 253.694009 238.34472 
L 254.668948 232.850777 
L 255.643886 225.435606 
L 256.618825 215.424421 
L 257.593763 201.912645 
L 258.568702 183.67727 
L 259.54364 159.081166 
L 260.518579 125.976708 
L 261.493518 81.916487 
L 262.793436 15.785595 
L 263.118415 16.856637 
L 263.443395 49.47727 
L 264.093354 186.730434 
L 264.418333 225.661326 
L 264.743313 242.36354 
L 265.068292 248.999902 
L 265.393272 251.701548 
L 265.718251 252.867506 
L 266.043231 253.40558 
L 266.69319 253.809862 
L 267.668129 253.959449 
L 270.592944 254.013214 
L 281.967228 253.939493 
L 286.191962 253.717321 
L 288.466818 253.407324 
L 290.091716 253.007614 
L 291.391634 252.507743 
L 292.691552 251.761708 
L 293.666491 250.969652 
L 294.641429 249.899867 
L 295.616368 248.455673 
L 296.591306 246.505216 
L 297.566245 243.871558 
L 298.541183 240.316207 
L 299.516122 235.514642 
L 300.491061 229.030612 
L 301.465999 220.278247 
L 302.440938 208.460219 
L 303.415876 192.514145 
L 304.390815 170.997921 
L 305.365753 142.001126 
L 306.340692 103.122771 
L 307.315631 52.805537 
L 307.96559 19.5778 
L 308.290569 14.386232 
L 308.615549 34.610717 
L 309.590487 215.890015 
L 309.915467 238.357576 
L 310.240446 247.389795 
L 310.565426 251.024813 
L 310.890405 252.564272 
L 311.215385 253.260136 
L 311.540364 253.596822 
L 312.190324 253.863863 
L 313.490242 253.984464 
L 318.364934 254.014857 
L 328.4393 253.90021 
L 332.014075 253.654704 
L 334.288931 253.281297 
L 335.913829 252.799846 
L 337.213747 252.197811 
L 338.188686 251.558698 
L 339.163624 250.695806 
L 340.138563 249.530755 
L 341.113501 247.957599 
L 342.08844 245.833558 
L 343.063378 242.965857 
L 344.038317 239.09377 
L 345.013256 233.865734 
L 345.988194 226.807767 
L 346.963133 217.278777 
L 347.938071 204.414585 
L 348.91301 187.053736 
L 349.887948 163.634364 
L 350.862887 132.097601 
L 351.837826 89.989576 
L 353.137744 21.646204 
L 353.462723 14.383279 
L 353.787703 29.967707 
L 354.112682 83.500624 
L 354.762641 210.989704 
L 355.087621 236.290479 
L 355.4126 246.564719 
L 355.73758 250.683813 
L 356.062559 252.414668 
L 356.387539 253.189815 
L 356.712518 253.560486 
L 357.362477 253.8528 
L 358.662396 253.982624 
L 360.612273 254.011028 
L 360.612273 254.011028 
" clip-path="url(#pb15899de5b)" style="fill: none; stroke: #348abd; stroke-width: 1.5; stroke-linecap: square"/>
   </g>
   <g id="patch_3">
    <path d="M 19.725 266.112 
L 19.725 0 
" style="fill: none; stroke: #ffffff; stroke-linejoin: miter; stroke-linecap: square"/>
   </g>
   <g id="patch_4">
    <path d="M 376.845 266.112 
L 376.845 0 
" style="fill: none; stroke: #ffffff; stroke-linejoin: miter; stroke-linecap: square"/>
   </g>
   <g id="patch_5">
    <path d="M 19.725 266.112 
L 376.845 266.112 
" style="fill: none; stroke: #ffffff; stroke-linejoin: miter; stroke-linecap: square"/>
   </g>
   <g id="patch_6">
    <path d="M 19.725 0 
L 376.845 0 
" style="fill: none; stroke: #ffffff; stroke-linejoin: miter; stroke-linecap: square"/>
   </g>
   <g id="legend_1">
    <g id="patch_7">
     <path d="M 26.725 149.234125 
L 101.739062 149.234125 
Q 103.739062 149.234125 103.739062 147.234125 
L 103.739062 118.877875 
Q 103.739062 116.877875 101.739062 116.877875 
L 26.725 116.877875 
Q 24.725 116.877875 24.725 118.877875 
L 24.725 147.234125 
Q 24.725 149.234125 26.725 149.234125 
z
" style="fill: #e5e5e5; opacity: 0.8; stroke: #cccccc; stroke-width: 0.5; stroke-linejoin: miter"/>
    </g>
    <g id="line2d_27">
     <path d="M 28.725 124.976312 
L 38.725 124.976312 
L 48.725 124.976312 
" style="fill: none; stroke: #e24a33; stroke-width: 1.5; stroke-linecap: square"/>
    </g>
    <g id="text_14">
     <!-- predator -->
     <g transform="translate(56.725 128.476312) scale(0.1 -0.1)">
      <defs>
       <path id="DejaVuSans-70" d="M 1159 525 
L 1159 -1331 
L 581 -1331 
L 581 3500 
L 1159 3500 
L 1159 2969 
Q 1341 3281 1617 3432 
Q 1894 3584 2278 3584 
Q 2916 3584 3314 3078 
Q 3713 2572 3713 1747 
Q 3713 922 3314 415 
Q 2916 -91 2278 -91 
Q 1894 -91 1617 61 
Q 1341 213 1159 525 
z
M 3116 1747 
Q 3116 2381 2855 2742 
Q 2594 3103 2138 3103 
Q 1681 3103 1420 2742 
Q 1159 2381 1159 1747 
Q 1159 1113 1420 752 
Q 1681 391 2138 391 
Q 2594 391 2855 752 
Q 3116 1113 3116 1747 
z
" transform="scale(0.015625)"/>
       <path id="DejaVuSans-72" d="M 2631 2963 
Q 2534 3019 2420 3045 
Q 2306 3072 2169 3072 
Q 1681 3072 1420 2755 
Q 1159 2438 1159 1844 
L 1159 0 
L 581 0 
L 581 3500 
L 1159 3500 
L 1159 2956 
Q 1341 3275 1631 3429 
Q 1922 3584 2338 3584 
Q 2397 3584 2469 3576 
Q 2541 3569 2628 3553 
L 2631 2963 
z
" transform="scale(0.015625)"/>
       <path id="DejaVuSans-64" d="M 2906 2969 
L 2906 4863 
L 3481 4863 
L 3481 0 
L 2906 0 
L 2906 525 
Q 2725 213 2448 61 
Q 2172 -91 1784 -91 
Q 1150 -91 751 415 
Q 353 922 353 1747 
Q 353 2572 751 3078 
Q 1150 3584 1784 3584 
Q 2172 3584 2448 3432 
Q 2725 3281 2906 2969 
z
M 947 1747 
Q 947 1113 1208 752 
Q 1469 391 1925 391 
Q 2381 391 2643 752 
Q 2906 1113 2906 1747 
Q 2906 2381 2643 2742 
Q 2381 3103 1925 3103 
Q 1469 3103 1208 2742 
Q 947 2381 947 1747 
z
" transform="scale(0.015625)"/>
       <path id="DejaVuSans-61" d="M 2194 1759 
Q 1497 1759 1228 1600 
Q 959 1441 959 1056 
Q 959 750 1161 570 
Q 1363 391 1709 391 
Q 2188 391 2477 730 
Q 2766 1069 2766 1631 
L 2766 1759 
L 2194 1759 
z
M 3341 1997 
L 3341 0 
L 2766 0 
L 2766 531 
Q 2569 213 2275 61 
Q 1981 -91 1556 -91 
Q 1019 -91 701 211 
Q 384 513 384 1019 
Q 384 1609 779 1909 
Q 1175 2209 1959 2209 
L 2766 2209 
L 2766 2266 
Q 2766 2663 2505 2880 
Q 2244 3097 1772 3097 
Q 1472 3097 1187 3025 
Q 903 2953 641 2809 
L 641 3341 
Q 956 3463 1253 3523 
Q 1550 3584 1831 3584 
Q 2591 3584 2966 3190 
Q 3341 2797 3341 1997 
z
" transform="scale(0.015625)"/>
       <path id="DejaVuSans-6f" d="M 1959 3097 
Q 1497 3097 1228 2736 
Q 959 2375 959 1747 
Q 959 1119 1226 758 
Q 1494 397 1959 397 
Q 2419 397 2687 759 
Q 2956 1122 2956 1747 
Q 2956 2369 2687 2733 
Q 2419 3097 1959 3097 
z
M 1959 3584 
Q 2709 3584 3137 3096 
Q 3566 2609 3566 1747 
Q 3566 888 3137 398 
Q 2709 -91 1959 -91 
Q 1206 -91 779 398 
Q 353 888 353 1747 
Q 353 2609 779 3096 
Q 1206 3584 1959 3584 
z
" transform="scale(0.015625)"/>
      </defs>
      <use xlink:href="#DejaVuSans-70"/>
      <use xlink:href="#DejaVuSans-72" transform="translate(63.476562 0)"/>
      <use xlink:href="#DejaVuSans-65" transform="translate(102.339844 0)"/>
      <use xlink:href="#DejaVuSans-64" transform="translate(163.863281 0)"/>
      <use xlink:href="#DejaVuSans-61" transform="translate(227.339844 0)"/>
      <use xlink:href="#DejaVuSans-74" transform="translate(288.619141 0)"/>
      <use xlink:href="#DejaVuSans-6f" transform="translate(327.828125 0)"/>
      <use xlink:href="#DejaVuSans-72" transform="translate(389.009766 0)"/>
     </g>
    </g>
    <g id="line2d_28">
     <path d="M 28.725 139.654437 
L 38.725 139.654437 
L 48.725 139.654437 
" style="fill: none; stroke: #348abd; stroke-width: 1.5; stroke-linecap: square"/>
    </g>
    <g id="text_15">
     <!-- prey -->
     <g transform="translate(56.725 143.154437) scale(0.1 -0.1)">
      <defs>
       <path id="DejaVuSans-79" d="M 2059 -325 
Q 1816 -950 1584 -1140 
Q 1353 -1331 966 -1331 
L 506 -1331 
L 506 -850 
L 844 -850 
Q 1081 -850 1212 -737 
Q 1344 -625 1503 -206 
L 1606 56 
L 191 3500 
L 800 3500 
L 1894 763 
L 2988 3500 
L 3597 3500 
L 2059 -325 
z
" transform="scale(0.015625)"/>
      </defs>
      <use xlink:href="#DejaVuSans-70"/>
      <use xlink:href="#DejaVuSans-72" transform="translate(63.476562 0)"/>
      <use xlink:href="#DejaVuSans-65" transform="translate(102.339844 0)"/>
      <use xlink:href="#DejaVuSans-79" transform="translate(163.863281 0)"/>
     </g>
    </g>
   </g>
  </g>
 </g>
 <defs>
  <clipPath id="pb15899de5b">
   <rect x="19.725" y="0" width="357.12" height="266.112"/>
  </clipPath>
 </defs>
</svg>
